<?xml version="1.0" encoding="UTF-8"?>
<!-- Created with Inkscape (http://www.inkscape.org/) -->
<svg width="70.908mm" height="70.908mm" version="1.1" viewBox="0 0 70.908 70.908" xmlns="http://www.w3.org/2000/svg" xmlns:cc="http://creativecommons.org/ns#" xmlns:dc="http://purl.org/dc/elements/1.1/" xmlns:rdf="http://www.w3.org/1999/02/22-rdf-syntax-ns#">
 <metadata>
  <rdf:RDF>
   <cc:Work rdf:about="">
    <dc:format>image/svg+xml</dc:format>
    <dc:type rdf:resource="http://purl.org/dc/dcmitype/StillImage"/>
    <dc:title/>
   </cc:Work>
  </rdf:RDF>
 </metadata>
 <g transform="translate(-58.101 -56.337)">
  <g fill="#06080a">
   <g transform="matrix(.99861 0 0 .99861 -3.804 7.5969)" fill="#06080a">
    <path transform="matrix(-.025275 .99957 -.99957 -.025275 177.12 35.915)" d="m49.412 42.889h0.20656v1.0328h-0.20656z" style="paint-order:stroke fill markers"/>
    <path transform="matrix(-.075814 .99702 -.99702 -.075814 179.43 40.431)" d="m49.412 42.889h0.20656v1.0328h-0.20656z" style="paint-order:stroke fill markers"/>
    <path transform="matrix(-.12604 .99192 -.99192 -.12604 181.49 45.051)" d="m49.412 42.889h0.20656v1.0328h-0.20656z" style="paint-order:stroke fill markers"/>
    <path transform="matrix(-.17578 .98432 -.98432 -.17578 183.29 49.757)" d="m49.412 42.889h0.20656v1.0328h-0.20656z" style="paint-order:stroke fill markers"/>
    <path transform="matrix(-.22486 .97428 -.97428 -.22486 184.81 54.532)" d="m49.412 42.889h0.20656v1.0328h-0.20656z" style="paint-order:stroke fill markers"/>
    <path transform="matrix(-.32048 .94715 -.94715 -.32048 187.75 62.134)" d="m49.412 42.889h0.20656v1.0328h-0.20656z" style="paint-order:stroke fill markers"/>
    <path transform="matrix(-.36677 .9302 -.9302 -.36677 188.56 67.049)" d="m49.412 42.889h0.20656v1.0328h-0.20656z" style="paint-order:stroke fill markers"/>
    <path transform="matrix(-.41191 .91112 -.91112 -.41191 189.1 71.972)" d="m49.412 42.889h0.20656v1.0328h-0.20656z" style="paint-order:stroke fill markers"/>
    <path transform="matrix(-.49842 .86683 -.86683 -.49842 190.46 79.878)" d="m49.412 42.889h0.20656v1.0328h-0.20656z" style="paint-order:stroke fill markers"/>
    <path transform="matrix(-.53965 .84177 -.84177 -.53965 190.29 84.796)" d="m49.412 42.889h0.20656v1.0328h-0.20656z" style="paint-order:stroke fill markers"/>
    <path transform="matrix(-.57947 .81488 -.81488 -.57947 189.86 89.673)" d="m49.412 42.889h0.20656v1.0328h-0.20656z" style="paint-order:stroke fill markers"/>
    <path transform="matrix(-.65468 .75578 -.75578 -.65468 189.68 97.603)" d="m49.412 42.889h0.20656v1.0328h-0.20656z" style="paint-order:stroke fill markers"/>
    <path transform="matrix(-.68998 .7237 -.7237 -.68998 188.57 102.37)" d="m49.412 42.889h0.20656v1.0328h-0.20656z" style="paint-order:stroke fill markers"/>
    <path transform="matrix(-.7237 .68998 -.68998 -.7237 187.22 107.05)" d="m49.412 42.889h0.20656v1.0328h-0.20656z" style="paint-order:stroke fill markers"/>
    <path transform="matrix(-.75578 .65468 -.65468 -.75578 185.64 111.65)" d="m49.412 42.889h0.20656v1.0328h-0.20656z" style="paint-order:stroke fill markers"/>
    <path transform="matrix(-.81488 .57947 -.57947 -.81488 183.56 119.29)" d="m49.412 42.889h0.20656v1.0328h-0.20656z" style="paint-order:stroke fill markers"/>
    <path transform="matrix(-.84177 .53965 -.53965 -.84177 181.35 123.66)" d="m49.412 42.889h0.20656v1.0328h-0.20656z" style="paint-order:stroke fill markers"/>
    <path transform="matrix(-.86683 .49842 -.49842 -.86683 178.91 127.92)" d="m49.412 42.889h0.20656v1.0328h-0.20656z" style="paint-order:stroke fill markers"/>
    <path transform="matrix(-.91112 .41191 -.41191 -.91112 175.39 135.12)" d="m49.412 42.889h0.20656v1.0328h-0.20656z" style="paint-order:stroke fill markers"/>
    <path transform="matrix(-.9302 .36677 -.36677 -.9302 172.36 139.05)" d="m49.412 42.889h0.20656v1.0328h-0.20656z" style="paint-order:stroke fill markers"/>
    <path transform="matrix(-.94715 .32048 -.32048 -.94715 169.12 142.83)" d="m49.412 42.889h0.20656v1.0328h-0.20656z" style="paint-order:stroke fill markers"/>
    <path transform="matrix(-.97428 .22486 -.22486 -.97428 164.2 149.36)" d="m49.412 42.889h0.20656v1.0328h-0.20656z" style="paint-order:stroke fill markers"/>
    <path transform="matrix(-.98432 .17578 -.17578 -.98432 160.42 152.69)" d="m49.412 42.889h0.20656v1.0328h-0.20656z" style="paint-order:stroke fill markers"/>
    <path transform="matrix(-.99192 .12604 -.12604 -.99192 156.47 155.83)" d="m49.412 42.889h0.20656v1.0328h-0.20656z" style="paint-order:stroke fill markers"/>
    <path transform="matrix(-.99702 .075814 -.075814 -.99702 152.36 158.74)" d="m49.412 42.889h0.20656v1.0328h-0.20656z" style="paint-order:stroke fill markers"/>
    <path transform="matrix(-.99957 .025275 -.025275 -.99957 148.09 161.43)" d="m49.412 42.889h0.20656v1.0328h-0.20656z" style="paint-order:stroke fill markers"/>
    <path transform="matrix(-.99714 -.074189 .074189 -.99714 141.46 166.18)" d="m49.412 42.889h0.20656v1.0328h-0.20656z" style="paint-order:stroke fill markers"/>
    <path transform="matrix(-.99227 -.12326 .12326 -.99227 136.9 168.18)" d="m49.412 42.889h0.20656v1.0328h-0.20656z" style="paint-order:stroke fill markers"/>
    <path transform="matrix(-.98502 -.17187 .17187 -.98502 132.26 169.94)" d="m49.412 42.889h0.20656v1.0328h-0.20656z" style="paint-order:stroke fill markers"/>
    <path transform="matrix(-.96349 -.26737 .26737 -.96349 124.9 173.26)" d="m49.412 42.889h0.20656v1.0328h-0.20656z" style="paint-order:stroke fill markers"/>
    <path transform="matrix(-.94929 -.31409 .31409 -.94929 120.06 174.33)" d="m49.412 42.889h0.20656v1.0328h-0.20656z" style="paint-order:stroke fill markers"/>
    <path transform="matrix(-.93284 -.36001 .36001 -.93284 115.19 175.15)" d="m49.412 42.889h0.20656v1.0328h-0.20656z" style="paint-order:stroke fill markers"/>
    <path transform="matrix(-.91418 -.40506 .40506 -.91418 110.29 175.71)" d="m49.412 42.889h0.20656v1.0328h-0.20656z" style="paint-order:stroke fill markers"/>
    <path transform="matrix(-.87035 -.49223 .49223 -.87035 102.38 177.12)" d="m49.412 42.889h0.20656v1.0328h-0.20656z" style="paint-order:stroke fill markers"/>
    <path transform="matrix(-.84524 -.5342 .5342 -.84524 97.424 176.98)" d="m49.412 42.889h0.20656v1.0328h-0.20656z" style="paint-order:stroke fill markers"/>
    <path transform="matrix(-.81804 -.57498 .57498 -.81804 92.487 176.59)" d="m49.412 42.889h0.20656v1.0328h-0.20656z" style="paint-order:stroke fill markers"/>
    <path transform="matrix(-.75755 -.65263 .65263 -.75755 84.383 176.47)" d="m49.412 42.889h0.20656v1.0328h-0.20656z" style="paint-order:stroke fill markers"/>
    <path transform="matrix(-.72434 -.6893 .6893 -.72434 79.503 175.38)" d="m49.412 42.889h0.20656v1.0328h-0.20656z" style="paint-order:stroke fill markers"/>
    <path transform="matrix(-.6893 -.72434 .72434 -.6893 74.693 174.04)" d="m49.412 42.889h0.20656v1.0328h-0.20656z" style="paint-order:stroke fill markers"/>
    <path transform="matrix(-.65263 -.75755 .75755 -.65263 69.978 172.45)" d="m49.412 42.889h0.20656v1.0328h-0.20656z" style="paint-order:stroke fill markers"/>
    <path transform="matrix(-.57498 -.81804 .81804 -.57498 62.162 170.34)" d="m49.412 42.889h0.20656v1.0328h-0.20656z" style="paint-order:stroke fill markers"/>
    <path transform="matrix(-.5342 -.84524 .84524 -.5342 57.73 168.1)" d="m49.412 42.889h0.20656v1.0328h-0.20656z" style="paint-order:stroke fill markers"/>
    <path transform="matrix(-.49223 -.87035 .87035 -.49223 53.441 165.63)" d="m49.412 42.889h0.20656v1.0328h-0.20656z" style="paint-order:stroke fill markers"/>
    <path transform="matrix(-.40506 -.91418 .91418 -.40506 46.218 162.06)" d="m49.412 42.889h0.20656v1.0328h-0.20656z" style="paint-order:stroke fill markers"/>
    <path transform="matrix(-.36001 -.93284 .93284 -.36001 42.312 159.01)" d="m49.412 42.889h0.20656v1.0328h-0.20656z" style="paint-order:stroke fill markers"/>
    <path transform="matrix(-.31409 -.94929 .94929 -.31409 38.581 155.76)" d="m49.412 42.889h0.20656v1.0328h-0.20656z" style="paint-order:stroke fill markers"/>
    <path transform="matrix(-.26737 -.96349 .96349 -.26737 35.032 152.33)" d="m49.412 42.889h0.20656v1.0328h-0.20656z" style="paint-order:stroke fill markers"/>
    <path transform="matrix(-.17187 -.98502 .98502 -.17187 28.891 147.1)" d="m49.412 42.889h0.20656v1.0328h-0.20656z" style="paint-order:stroke fill markers"/>
    <path transform="matrix(-.12326 -.99227 .99227 -.12326 25.83 143.18)" d="m49.412 42.889h0.20656v1.0328h-0.20656z" style="paint-order:stroke fill markers"/>
    <path transform="matrix(-.074189 -.99714 .99714 -.074189 22.98 139.11)" d="m49.412 42.889h0.20656v1.0328h-0.20656z" style="paint-order:stroke fill markers"/>
    <path transform="matrix(-.024774 -.99959 .99959 -.024774 20.349 134.89)" d="m49.412 42.889h0.20656v1.0328h-0.20656z" style="paint-order:stroke fill markers"/>
    <path transform="matrix(.074189 -.99714 .99714 .074189 15.632 128.27)" d="m49.412 42.889h0.20656v1.0328h-0.20656z" style="paint-order:stroke fill markers"/>
    <path transform="matrix(.12326 -.99227 .99227 .12326 13.622 123.71)" d="m49.412 42.889h0.20656v1.0328h-0.20656z" style="paint-order:stroke fill markers"/>
    <path transform="matrix(.17187 -.98502 .98502 .17187 11.869 119.07)" d="m49.412 42.889h0.20656v1.0328h-0.20656z" style="paint-order:stroke fill markers"/>
    <path transform="matrix(.26737 -.96349 .96349 .26737 8.5519 111.72)" d="m49.412 42.889h0.20656v1.0328h-0.20656z" style="paint-order:stroke fill markers"/>
    <path transform="matrix(.31409 -.94929 .94929 .31409 7.4739 106.88)" d="m49.412 42.889h0.20656v1.0328h-0.20656z" style="paint-order:stroke fill markers"/>
    <path transform="matrix(.36001 -.93284 .93284 .36001 6.6575 102)" d="m49.412 42.889h0.20656v1.0328h-0.20656z" style="paint-order:stroke fill markers"/>
    <path transform="matrix(.40506 -.91418 .91418 .40506 6.1024 97.104)" d="m49.412 42.889h0.20656v1.0328h-0.20656z" style="paint-order:stroke fill markers"/>
    <path transform="matrix(.49223 -.87035 .87035 .49223 4.6917 89.194)" d="m49.412 42.889h0.20656v1.0328h-0.20656z" style="paint-order:stroke fill markers"/>
    <path transform="matrix(.5342 -.84524 .84524 .5342 4.8241 84.239)" d="m49.412 42.889h0.20656v1.0328h-0.20656z" style="paint-order:stroke fill markers"/>
    <path transform="matrix(.57498 -.81804 .81804 .57498 5.2168 79.302)" d="m49.412 42.889h0.20656v1.0328h-0.20656z" style="paint-order:stroke fill markers"/>
    <path transform="matrix(.65263 -.75755 .75755 .65263 5.3428 71.198)" d="m49.412 42.889h0.20656v1.0328h-0.20656z" style="paint-order:stroke fill markers"/>
    <path transform="matrix(.6893 -.72434 .72434 .6893 6.4263 66.318)" d="m49.412 42.889h0.20656v1.0328h-0.20656z" style="paint-order:stroke fill markers"/>
    <path transform="matrix(.72434 -.6893 .6893 .72434 7.7659 61.508)" d="m49.412 42.889h0.20656v1.0328h-0.20656z" style="paint-order:stroke fill markers"/>
    <path transform="matrix(.75755 -.65263 .65263 .75755 9.3573 56.793)" d="m49.412 42.889h0.20656v1.0328h-0.20656z" style="paint-order:stroke fill markers"/>
    <path transform="matrix(.81804 -.57498 .57498 .81804 11.47 48.977)" d="m49.412 42.889h0.20656v1.0328h-0.20656z" style="paint-order:stroke fill markers"/>
    <path transform="matrix(.84524 -.5342 .5342 .84524 13.713 44.545)" d="m49.412 42.889h0.20656v1.0328h-0.20656z" style="paint-order:stroke fill markers"/>
    <path transform="matrix(.87035 -.49223 .49223 .87035 16.181 40.257)" d="m49.412 42.889h0.20656v1.0328h-0.20656z" style="paint-order:stroke fill markers"/>
    <path transform="matrix(.91418 -.40506 .40506 .91418 19.75 33.034)" d="m49.412 42.889h0.20656v1.0328h-0.20656z" style="paint-order:stroke fill markers"/>
    <path transform="matrix(.93284 -.36001 .36001 .93284 22.801 29.128)" d="m49.412 42.889h0.20656v1.0328h-0.20656z" style="paint-order:stroke fill markers"/>
    <path transform="matrix(.94929 -.31409 .31409 .94929 26.048 25.396)" d="m49.412 42.889h0.20656v1.0328h-0.20656z" style="paint-order:stroke fill markers"/>
    <path transform="matrix(.96349 -.26737 .26737 .96349 29.481 21.848)" d="m49.412 42.889h0.20656v1.0328h-0.20656z" style="paint-order:stroke fill markers"/>
    <path transform="matrix(.98502 -.17187 .17187 .98502 34.705 15.707)" d="m49.412 42.889h0.20656v1.0328h-0.20656z" style="paint-order:stroke fill markers"/>
    <path transform="matrix(.99227 -.12326 .12326 .99227 38.627 12.646)" d="m49.412 42.889h0.20656v1.0328h-0.20656z" style="paint-order:stroke fill markers"/>
    <path transform="matrix(.99714 -.074189 .074189 .99714 42.703 9.7957)" d="m49.412 42.889h0.20656v1.0328h-0.20656z" style="paint-order:stroke fill markers"/>
    <path transform="matrix(.99959 -.024774 .024774 .99959 46.923 7.1652)" d="m49.412 42.889h0.20656v1.0328h-0.20656z" style="paint-order:stroke fill markers"/>
    <path transform="matrix(.99714 .074189 -.074189 .99714 53.536 2.4484)" d="m49.412 42.889h0.20656v1.0328h-0.20656z" style="paint-order:stroke fill markers"/>
    <path transform="matrix(.99227 .12326 -.12326 .99227 58.094 .43899)" d="m49.412 42.889h0.20656v1.0328h-0.20656z" style="paint-order:stroke fill markers"/>
    <path transform="matrix(.98502 .17187 -.17187 .98502 62.735 -1.3139)" d="m49.412 42.889h0.20656v1.0328h-0.20656z" style="paint-order:stroke fill markers"/>
    <path transform="matrix(.96349 .26737 -.26737 .96349 70.091 -4.6312)" d="m49.412 42.889h0.20656v1.0328h-0.20656z" style="paint-order:stroke fill markers"/>
    <path transform="matrix(.94929 .31409 -.31409 .94929 74.931 -5.7091)" d="m49.412 42.889h0.20656v1.0328h-0.20656z" style="paint-order:stroke fill markers"/>
    <path transform="matrix(.93284 .36001 -.36001 .93284 79.806 -6.5255)" d="m49.412 42.889h0.20656v1.0328h-0.20656z" style="paint-order:stroke fill markers"/>
    <path transform="matrix(.91418 .40506 -.40506 .91418 84.705 -7.0805)" d="m49.412 42.889h0.20656v1.0328h-0.20656z" style="paint-order:stroke fill markers"/>
    <path transform="matrix(.87035 .49223 -.49223 .87035 92.614 -8.491)" d="m49.412 42.889h0.20656v1.0328h-0.20656z" style="paint-order:stroke fill markers"/>
    <path transform="matrix(.84524 .5342 -.5342 .84524 97.57 -8.3586)" d="m49.412 42.889h0.20656v1.0328h-0.20656z" style="paint-order:stroke fill markers"/>
    <path transform="matrix(.81804 .57498 -.57498 .81804 102.51 -7.9658)" d="m49.412 42.889h0.20656v1.0328h-0.20656z" style="paint-order:stroke fill markers"/>
    <path transform="matrix(.75755 .65263 -.65263 .75755 110.61 -7.8397)" d="m49.412 42.889h0.20656v1.0328h-0.20656z" style="paint-order:stroke fill markers"/>
    <path transform="matrix(.72434 .6893 -.6893 .72434 115.49 -6.7561)" d="m49.412 42.889h0.20656v1.0328h-0.20656z" style="paint-order:stroke fill markers"/>
    <path transform="matrix(.6893 .72434 -.72434 .6893 120.3 -5.4164)" d="m49.412 42.889h0.20656v1.0328h-0.20656z" style="paint-order:stroke fill markers"/>
    <path transform="matrix(.65263 .75755 -.75755 .65263 125.02 -3.8249)" d="m49.412 42.889h0.20656v1.0328h-0.20656z" style="paint-order:stroke fill markers"/>
    <path transform="matrix(.57498 .81804 -.81804 .57498 132.83 -1.7124)" d="m49.412 42.889h0.20656v1.0328h-0.20656z" style="paint-order:stroke fill markers"/>
    <path transform="matrix(.5342 .84524 -.84524 .5342 137.26 .53094)" d="m49.412 42.889h0.20656v1.0328h-0.20656z" style="paint-order:stroke fill markers"/>
    <path transform="matrix(.49223 .87035 -.87035 .49223 141.55 2.9994)" d="m49.412 42.889h0.20656v1.0328h-0.20656z" style="paint-order:stroke fill markers"/>
    <path transform="matrix(.40506 .91418 -.91418 .40506 148.77 6.5679)" d="m49.412 42.889h0.20656v1.0328h-0.20656z" style="paint-order:stroke fill markers"/>
    <path transform="matrix(.36001 .93284 -.93284 .36001 152.68 9.6192)" d="m49.412 42.889h0.20656v1.0328h-0.20656z" style="paint-order:stroke fill markers"/>
    <path transform="matrix(.31409 .94929 -.94929 .31409 156.41 12.866)" d="m49.412 42.889h0.20656v1.0328h-0.20656z" style="paint-order:stroke fill markers"/>
    <path transform="matrix(.26737 .96349 -.96349 .26737 159.96 16.299)" d="m49.412 42.889h0.20656v1.0328h-0.20656z" style="paint-order:stroke fill markers"/>
    <path transform="matrix(.17187 .98502 -.98502 .17187 166.1 21.523)" d="m49.412 42.889h0.20656v1.0328h-0.20656z" style="paint-order:stroke fill markers"/>
    <path transform="matrix(.12326 .99227 -.99227 .12326 169.16 25.445)" d="m49.412 42.889h0.20656v1.0328h-0.20656z" style="paint-order:stroke fill markers"/>
    <path transform="matrix(.074189 .99714 -.99714 .074189 172.01 29.521)" d="m49.412 42.889h0.20656v1.0328h-0.20656z" style="paint-order:stroke fill markers"/>
    <path transform="matrix(.024774 .99959 -.99959 .024774 174.64 33.741)" d="m49.412 42.889h0.20656v1.0328h-0.20656z" style="paint-order:stroke fill markers"/>
   </g>
  </g>
 </g>
</svg>
