<svg xmlns="http://www.w3.org/2000/svg" width="96" height="26" viewBox="0 0 96 26">
    <g fill="none" fill-rule="evenodd">
        <path fill="#FFCB05" d="M13.406 15.988L7.914 8.484v5.459h2.183v5.391H0v-5.391h2.047V5.55H0V.162h7.933l5.473 7.558L18.878.162h7.931V5.55h-2.047v8.393h2.047v5.391H16.712v-5.391h2.182v-5.46z"/>
        <path fill="#375278" fill-rule="nonzero" d="M31.537 19.523V.508h3.019v16.476h5.078v2.54h-8.097zm13.006 0h-3.019V5.783h3.019v13.74zM43.019.451c.932 0 1.609.678 1.609 1.75.028 1.015-.677 1.72-1.665 1.72-.875 0-1.58-.705-1.552-1.72-.028-1.072.706-1.75 1.608-1.75zm6.743 19.072h-2.567c.028-1.015.113-2.595.113-3.724V0h2.99v7.279h.057c.677-1.157 1.636-1.721 2.878-1.721 2.426 0 3.836 2.765 3.836 6.827 0 4.881-1.974 7.364-4.344 7.364-1.27 0-2.06-.649-2.709-1.919h-.084l-.17 1.693zm.536-8.718v3.837c0 .339.057.65.113.875.395 1.439 1.1 1.75 1.608 1.75 1.467 0 2.032-1.92 2.032-4.684 0-2.54-.593-4.458-2.032-4.458-.79 0-1.438.875-1.608 1.778-.056.254-.113.62-.113.902zm9 8.718V9.65c0-1.27-.084-2.68-.113-3.865h2.624l.17 2.087h.084c.536-1.41 1.665-2.313 2.793-2.313.282 0 .452.028.62.056v3.02c-.168-.057-.366-.057-.62-.057-1.044 0-2.116.874-2.426 2.37-.085.338-.113.79-.113 1.326v7.25h-3.019zm16.166 0h-2.708l-.17-1.41h-.056c-.705 1.072-1.72 1.636-2.906 1.636-1.975 0-3.47-1.665-3.47-4.063 0-3.526 2.99-5.022 6.094-5.05v-.367c0-1.41-.564-2.426-2.06-2.426-.987 0-1.805.282-2.567.762l-.564-2.06c.677-.423 2.116-.987 3.78-.987 3.555 0 4.458 2.426 4.458 5.36v5.474c0 1.072.028 2.228.17 3.131zm-3.131-4.316v-2.568c-1.185.029-3.301.339-3.301 2.737 0 1.552.818 2.116 1.495 2.116.733 0 1.467-.508 1.72-1.58.057-.197.086-.451.086-.705zm5.755 4.316V9.65c0-1.27-.085-2.68-.113-3.865H80.6l.17 2.087h.084c.536-1.41 1.664-2.313 2.793-2.313.282 0 .451.028.62.056v3.02c-.169-.057-.366-.057-.62-.057-1.044 0-2.116.874-2.426 2.37-.085.338-.113.79-.113 1.326v7.25h-3.019zm7.194-13.74h3.216l1.58 7.477c.198.931.31 1.75.452 2.54h.056a60.01 60.01 0 0 1 .452-2.484l1.354-7.532h2.962l-2.567 9.818c-.734 2.962-1.665 5.924-3.216 7.815-1.073 1.326-2.286 1.946-2.822 2.144l-.959-2.596c.62-.282 1.27-.762 1.862-1.41.536-.565.931-1.298 1.185-1.919.113-.282.17-.451.17-.649 0-.17-.029-.338-.085-.508l-3.64-12.695z"/>
    </g>
</svg>
