<?xml version="1.0" encoding="UTF-8"?>
<svg width="24.61" height="20" version="1.1" viewBox="0 0 24.61 20" xmlns="http://www.w3.org/2000/svg" xmlns:cc="http://creativecommons.org/ns#" xmlns:dc="http://purl.org/dc/elements/1.1/" xmlns:rdf="http://www.w3.org/1999/02/22-rdf-syntax-ns#">
 <metadata>
  <rdf:RDF>
   <cc:Work rdf:about="">
    <dc:format>image/svg+xml</dc:format>
    <dc:type rdf:resource="http://purl.org/dc/dcmitype/StillImage"/>
    <dc:title/>
   </cc:Work>
  </rdf:RDF>
 </metadata>
 <path d="m24.61 2.3677c-0.90545 0.40197-1.8786 0.67268-2.8999 0.79471 1.0429-0.62449 1.8437-1.614 2.2201-2.7933-0.97518 0.57834-2.056 0.99877-3.2065 1.2254-0.91981-0.98134-2.2334-1.5945-3.6854-1.5945-3.2598 0-5.6553 3.0414-4.919 6.1987-4.195-0.21021-7.9153-2.2201-10.406-5.2748-1.3228 2.2693-0.68601 5.2379 1.5617 6.7412-0.8265-0.02666-1.6058-0.25328-2.2857-0.63166-0.055373 2.339 1.6212 4.5273 4.0494 5.0144-0.71062 0.19278-1.4889 0.2379-2.2806 0.08614 0.64192 2.0057 2.5062 3.4649 4.717 3.5059-2.1226 1.6643-4.797 2.4077-7.4754 2.0919 2.2344 1.4325 4.8893 2.2683 7.74 2.2683 9.3745 0 14.671-7.9174 14.351-15.018 0.98646-0.71267 1.8427-1.6017 2.5195-2.6138z" fill="#00274c" stroke-width="1.0254"/>
</svg>
